# ProBuilder 5.0.6
# https://unity3d.com/unity/features/worldbuilding/probuilder
# 11/12/2022 6:01:56 PM

mtllib ./Coin.mtl
o Coin

g Coin
v -8.054538 -0.4678082 6.425162
v -8.279286 -0.4678075 6.425162
v -8.054537 -0.2209553 7.021118
v -8.279285 -0.2209546 7.021118
v -8.054535 0.3749997 7.26797
v -8.279284 0.3750003 7.26797
v -8.054533 0.9709551 7.021118
v -8.279282 0.9709558 7.021118
v -8.054532 1.217808 6.425162
v -8.279281 1.217808 6.425162
v -8.054533 0.9709551 5.829207
v -8.279282 0.9709558 5.829207
v -8.054535 0.3749997 5.582355
v -8.279284 0.3750003 5.582355
v -8.054537 -0.2209553 5.829207
v -8.279285 -0.2209546 5.829207
v -8.086033 -0.3750003 6.425162
v -8.086031 0.3749998 6.425162
v -8.086033 -0.15533 6.955492
v -8.24631 -0.3749999 6.425162
v -8.246308 0.3750002 6.425162
v -8.246309 -0.1553295 6.955492
v -8.086031 0.3749998 7.175162
v -8.246308 0.3750002 7.175162
v -8.08603 0.90533 6.955492
v -8.246306 0.9053305 6.955492
v -8.086029 1.125 6.425162
v -8.246306 1.125 6.425162
v -8.08603 0.90533 5.894832
v -8.246306 0.9053305 5.894832
v -8.086031 0.3749998 5.675162
v -8.246308 0.3750002 5.675162
v -8.086033 -0.15533 5.894832
v -8.246309 -0.1553295 5.894832
v -8.055545 0.3749997 5.675162
v -8.055544 0.9053299 5.894832
v -8.273917 0.9053305 5.894832
v -8.273919 0.3750003 5.675162
v -8.055547 -0.1553301 5.894832
v -8.27392 -0.1553295 5.894832
v -8.055543 1.125 6.425162
v -8.273916 1.125 6.425162
v -8.055544 0.9053299 6.955492
v -8.273917 0.9053305 6.955492
v -8.055545 0.3749997 7.175162
v -8.273919 0.3750003 7.175162
v -8.055547 -0.1553301 6.955492
v -8.27392 -0.1553295 6.955492
v -8.055548 -0.3750004 6.425162
v -8.273921 -0.3749998 6.425162

vt -0.3225286 -0.1116343
vt -0.3225286 0.1131144
vt 0.3225288 -0.1116343
vt 0.3225288 0.1131144
vt -0.75 0
vt -2.161414E-09 0
vt -0.5303297 0.5303302
vt 0.75 0
vt 0.5303297 0.5303302
vt -2.161414E-09 0.75
vt 0.5303302 -0.5303302
vt -0.5303302 -0.5303302
vt -2.161414E-09 -0.75
vt 0.0004988945 -0.7511599
vt 0.5308236 -0.5314771
vt 0.0005034516 -0.8439732
vt 0.5964528 -0.5971062
vt -0.5327575 -0.5349291
vt -0.002579259 -0.7549654
vt -0.5984923 -0.6006638
vt -0.002707683 -0.847928
vt -0.5308232 -0.5314771
vt -0.5964523 -0.5971062
vt -0.000503455 -0.8439732
vt 0.002579272 -0.7549655
vt 0.532757 -0.5349292
vt 0.002707697 -0.8479281
vt 0.5984918 -0.6006638
vt 0.5315031 -0.5307976
vt 0.75116 -0.0004620139
vt 0.5971354 -0.5964234
vt 0.8439732 -0.0004620139
vt -0.7549683 -0.00153631
vt -0.5356646 -0.532018
vt -0.847931 -0.00153631
vt -0.60149 -0.597662
vt 0.5315031 0.5307976
vt 0.5971354 0.5964234
vt -0.5356646 0.532018
vt -0.7549683 0.001536309
vt -0.60149 0.597662
vt -0.847931 0.001536309
vt 0.5308236 0.5314771
vt 0.0004988933 0.7511599
vt 0.5964528 0.5971062
vt 0.0005034503 0.8439732
vt -0.002579265 0.7549655
vt -0.5327575 0.5349292
vt -0.00270769 0.8479281
vt -0.5984923 0.6006638
vt -0.5308232 0.5314771
vt -0.0005034565 0.8439732
vt -0.5964523 0.5971062
vt 0.532757 0.5349291
vt 0.002579264 0.7549654
vt 0.5984918 0.6006638
vt 0.002707689 0.847928
vt -0.5315027 0.5307976
vt -0.75116 0.0004620146
vt -0.5971349 0.5964234
vt -0.8439732 0.0004620147
vt 0.7549683 0.001536313
vt 0.5356641 0.532018
vt 0.847931 0.001536313
vt 0.6014895 0.597662
vt -0.5315027 -0.5307976
vt -0.5971349 -0.5964234
vt 0.5356641 -0.532018
vt 0.7549683 -0.001536312
vt 0.6014895 -0.597662
vt 0.847931 -0.001536312
vt 0.2870124 -0.1106238
vt -0.287013 -0.1106238
vt 0.2870124 -0.08013806
vt -0.287013 -0.08013806
vt -0.2870124 0.1077495
vt 0.2870129 0.1077495
vt -0.2870124 0.08013898
vt 0.2870129 0.08013898

vn -2.920628E-06 -1 0
vn -2.065195E-06 -0.7071067 0.7071069
vn -4.239585E-13 -1.451601E-07 1
vn 2.065196E-06 0.7071068 0.7071068
vn 2.920628E-06 1 0
vn 2.065196E-06 0.7071068 -0.7071068
vn -4.239585E-13 -1.451601E-07 -1
vn -2.065195E-06 -0.7071067 -0.7071069
vn 1 -2.920628E-06 0
vn -1 2.920628E-06 0
vn 0.9999307 -0.004512502 0.0108871
vn -0.9980484 -0.02389479 0.05769419
vn 0.9999307 0.004506653 0.01088707
vn -0.9980483 0.0239007 0.05769434
vn 0.9999307 -0.01088999 0.00450957
vn -0.9980485 -0.05769143 0.02389776
vn 0.9999307 -0.01089002 -0.004509581
vn -0.9980485 -0.05769128 -0.0238977
vn 0.9999307 -0.004512491 -0.01088707
vn -0.9980484 -0.02389485 -0.05769434
vn 0.9999307 0.004506666 -0.0108871
vn -0.9980483 0.02390063 -0.05769417
vn 0.9999308 0.01088415 -0.004509577
vn -0.9980482 0.05769726 -0.02389782
vn 0.9999308 0.01088418 0.004509591
vn -0.9980482 0.05769708 0.02389774
vn 2.698308E-06 0.9238794 0.382684
vn 1.117676E-06 0.3826836 0.9238795
vn 2.698308E-06 0.9238794 -0.382684
vn 1.117676E-06 0.3826836 -0.9238795
vn -1.117675E-06 -0.3826833 -0.9238796
vn -2.698308E-06 -0.9238797 -0.3826832
vn -2.698308E-06 -0.9238797 0.3826832
vn -1.117675E-06 -0.3826833 0.9238796

usemtl Gold
f 17/5/9 18/6/9 19/7/9
f 19/7/9 18/6/9 23/10/9
f 23/10/9 18/6/9 25/9/9
f 25/9/9 18/6/9 27/8/9
f 27/8/9 18/6/9 29/11/9
f 29/11/9 18/6/9 31/13/9
f 31/13/9 18/6/9 33/12/9
f 33/12/9 18/6/9 17/5/9
f 22/9/10 21/6/10 20/8/10
f 24/10/10 21/6/10 22/9/10
f 26/7/10 21/6/10 24/10/10
f 28/5/10 21/6/10 26/7/10
f 30/12/10 21/6/10 28/5/10
f 32/13/10 21/6/10 30/12/10
f 34/11/10 21/6/10 32/13/10
f 20/8/10 21/6/10 34/11/10
f 4/4/2 2/2/1 1/1/1
f 1/1/1 3/3/2 4/4/2
f 6/4/3 4/2/2 3/1/2
f 3/1/2 5/3/3 6/4/3
f 8/4/4 6/2/3 5/1/3
f 5/1/3 7/3/4 8/4/4
f 10/4/5 8/2/4 7/1/4
f 7/1/4 9/3/5 10/4/5
f 12/4/6 10/2/5 9/1/5
f 9/1/5 11/3/6 12/4/6
f 14/4/7 12/2/6 11/1/6
f 11/1/6 13/3/7 14/4/7
f 16/4/8 14/2/7 13/1/7
f 13/1/7 15/3/8 16/4/8
f 2/4/1 16/2/8 15/1/8
f 15/1/8 1/3/1 2/4/1
f 11/17/11 36/15/11 35/14/11
f 35/14/11 13/16/11 11/17/11
f 14/21/12 38/19/12 37/18/12
f 37/18/12 12/20/12 14/21/12
f 13/24/13 35/14/13 39/22/13
f 39/22/13 15/23/13 13/24/13
f 16/28/14 40/26/14 38/25/14
f 38/25/14 14/27/14 16/28/14
f 9/32/15 41/30/15 36/29/15
f 36/29/15 11/31/15 9/32/15
f 12/36/16 37/34/16 42/33/16
f 42/33/16 10/35/16 12/36/16
f 7/38/17 43/37/17 41/30/17
f 41/30/17 9/32/17 7/38/17
f 10/42/18 42/40/18 44/39/18
f 44/39/18 8/41/18 10/42/18
f 5/46/19 45/44/19 43/43/19
f 43/43/19 7/45/19 5/46/19
f 8/50/20 44/48/20 46/47/20
f 46/47/20 6/49/20 8/50/20
f 3/53/21 47/51/21 45/44/21
f 45/44/21 5/52/21 3/53/21
f 6/57/22 46/55/22 48/54/22
f 48/54/22 4/56/22 6/57/22
f 1/61/23 49/59/23 47/58/23
f 47/58/23 3/60/23 1/61/23
f 4/65/24 48/63/24 50/62/24
f 50/62/24 2/64/24 4/65/24
f 15/67/25 39/66/25 49/59/25
f 49/59/25 1/61/25 15/67/25
f 2/71/26 50/69/26 40/68/26
f 40/68/26 16/70/26 2/71/26
f 17/75/27 49/73/27 39/72/27
f 39/72/27 33/74/27 17/75/27
f 33/75/28 39/73/28 35/72/28
f 35/72/28 31/74/28 33/75/28
f 19/75/29 47/73/29 49/72/29
f 49/72/29 17/74/29 19/75/29
f 23/75/30 45/73/30 47/72/30
f 47/72/30 19/74/30 23/75/30
f 25/75/31 43/73/31 45/72/31
f 45/72/31 23/74/31 25/75/31
f 27/75/32 41/73/32 43/72/32
f 43/72/32 25/74/32 27/75/32
f 29/75/33 36/73/33 41/72/33
f 41/72/33 27/74/33 29/75/33
f 31/75/34 35/73/34 36/72/34
f 36/72/34 29/74/34 31/75/34
f 20/79/29 50/77/29 48/76/29
f 48/76/29 22/78/29 20/79/29
f 22/79/30 48/77/30 46/76/30
f 46/76/30 24/78/30 22/79/30
f 34/79/27 40/77/27 50/76/27
f 50/76/27 20/78/27 34/79/27
f 32/79/28 38/77/28 40/76/28
f 40/76/28 34/78/28 32/79/28
f 30/79/34 37/77/34 38/76/34
f 38/76/34 32/78/34 30/79/34
f 28/79/33 42/77/33 37/76/33
f 37/76/33 30/78/33 28/79/33
f 26/79/32 44/77/32 42/76/32
f 42/76/32 28/78/32 26/79/32
f 24/79/31 46/77/31 44/76/31
f 44/76/31 26/78/31 24/79/31

